<svg id="Layer_2" data-name="Layer 2" xmlns="http://www.w3.org/2000/svg" viewBox="0 0 128.19 168.48"><defs><style>.cls-1{stroke:#231f20;stroke-miterlimit:10;}.cls-2{fill:#231f20;}</style></defs><path class="cls-1" d="M287,217.26s-11.57-5-40.1,32.35c0,0-30.48,41.33,17.43,46.22,0,0,18.27-8.09,39.51-4.35,0,0,30.47,11.83,33.52-19.58,0,0-4-17.39-16.05-22.2,0,0-14.16-12.64-16.34-21.21S287,217.26,287,217.26Z" transform="translate(-224.7 -150.13)"/><path class="cls-1" d="M237.92,193.22s-15,17.44-12.4,31c0,0-1.9,24.17,23,16.9,0,0,14.51-5.19,7.38-30.42C255.87,210.67,245.19,192.46,237.92,193.22Z" transform="translate(-224.7 -150.13)"/><path class="cls-1" d="M321.36,206.46s-12.53,24-2.29,35c0,0,14.53,13.16,25.28,1,0,0,12-14.28,6.72-29.58l-7.39-13.59S333.16,185.88,325,196.9Z" transform="translate(-224.7 -150.13)"/><path class="cls-1" d="M290.21,168l-2.28,18.52s.4,17.23,9.52,19.68c0,0,13.41,4.17,21.16-11.79,0,0,5.48-13.94-1.47-22.23,0,0-8.46-21-15.29-20.42C301.85,151.71,289.21,148.48,290.21,168Z" transform="translate(-224.7 -150.13)"/><path class="cls-1" d="M281.34,169.9,281,183.69s5,15.82-11.26,21.65c0,0-14.24-2.89-18.85-16.1,0,0-3.38-16.28,5.62-27.76l8.87-7.51s9.68-10.43,13.91,5.57Z" transform="translate(-224.7 -150.13)"/><path class="cls-2" d="M233,306.44a23,23,0,0,1,3.33-.25,7,7,0,0,1,4.92,1.51,5.6,5.6,0,0,1,1.71,4.36,6.41,6.41,0,0,1-1.75,4.72,7.49,7.49,0,0,1-5.36,1.74,25.42,25.42,0,0,1-2.85-.14Zm1.57,10.73a10,10,0,0,0,1.58.09c3.35,0,5.17-1.87,5.17-5.15,0-2.86-1.6-4.68-4.92-4.68a8.83,8.83,0,0,0-1.83.16Z" transform="translate(-224.7 -150.13)"/><path class="cls-2" d="M255.36,312.22c0,4.18-2.54,6.39-5.64,6.39s-5.45-2.48-5.45-6.16c0-3.85,2.39-6.37,5.63-6.37S255.36,308.62,255.36,312.22Zm-9.42.2c0,2.59,1.41,4.91,3.87,4.91s3.89-2.28,3.89-5c0-2.41-1.26-4.93-3.87-4.93S245.94,309.75,245.94,312.42Z" transform="translate(-224.7 -150.13)"/><path class="cls-2" d="M266.63,317.87a11.14,11.14,0,0,1-3.73.67,5.69,5.69,0,0,1-6.23-6.12c0-3.62,2.5-6.27,6.57-6.27a7.57,7.57,0,0,1,3,.56l-.38,1.28a6.27,6.27,0,0,0-2.68-.52,4.53,4.53,0,0,0-4.88,4.88c0,3.07,1.85,4.89,4.68,4.89a5.16,5.16,0,0,0,2.09-.32V313.3h-2.47V312h4Z" transform="translate(-224.7 -150.13)"/><path class="cls-2" d="M281.31,318a7.7,7.7,0,0,1-3.2.57c-3.42,0-6-2.16-6-6.14a6,6,0,0,1,6.34-6.37,6.44,6.44,0,0,1,2.88.54L281,307.9a5.64,5.64,0,0,0-2.44-.51c-2.85,0-4.74,1.82-4.74,5,0,3,1.71,4.88,4.66,4.88a6.37,6.37,0,0,0,2.56-.5Z" transform="translate(-224.7 -150.13)"/><path class="cls-2" d="M285.31,314.6l-1.26,3.81h-1.62l4.12-12.13h1.89l4.14,12.13h-1.67l-1.3-3.81Zm4-1.23-1.19-3.49c-.27-.79-.45-1.51-.63-2.21h0c-.18.71-.38,1.45-.61,2.19l-1.19,3.51Z" transform="translate(-224.7 -150.13)"/><path class="cls-2" d="M294.36,306.44a16.53,16.53,0,0,1,3-.25,5,5,0,0,1,3.51,1,3,3,0,0,1,.95,2.3,3.17,3.17,0,0,1-2.28,3.1v.05a3,3,0,0,1,1.78,2.45,18.38,18.38,0,0,0,.94,3.33h-1.62a15.23,15.23,0,0,1-.81-2.89c-.36-1.68-1-2.31-2.44-2.36h-1.47v5.25h-1.57Zm1.57,5.53h1.6c1.68,0,2.74-.92,2.74-2.31,0-1.56-1.14-2.25-2.79-2.27a6.43,6.43,0,0,0-1.55.15Z" transform="translate(-224.7 -150.13)"/><path class="cls-2" d="M310.33,312.72h-4.72v4.38h5.26v1.31h-6.82V306.28h6.55v1.31h-5v3.84h4.72Z" transform="translate(-224.7 -150.13)"/><path class="cls-2" d="M319.6,308.19h0l-2,1.1-.31-1.21,2.56-1.37h1.35v11.7H319.6Z" transform="translate(-224.7 -150.13)"/><path class="cls-2" d="M333.17,312.44c0,4-1.48,6.17-4.07,6.17-2.29,0-3.83-2.14-3.87-6s1.69-6.09,4.07-6.09S333.17,308.71,333.17,312.44Zm-6.36.18c0,3,.94,4.77,2.38,4.77,1.62,0,2.4-1.89,2.4-4.88s-.74-4.77-2.38-4.77C327.82,307.74,326.81,309.43,326.81,312.62Z" transform="translate(-224.7 -150.13)"/><path class="cls-2" d="M338.06,308.19h0l-2,1.1-.3-1.21,2.56-1.37h1.35v11.7h-1.54Z" transform="translate(-224.7 -150.13)"/></svg>