<svg id="Layer_2" data-name="Layer 2" xmlns="http://www.w3.org/2000/svg" viewBox="0 0 128.19 146.21"><defs><style>.cls-1{stroke:#231f20;stroke-miterlimit:10;}</style></defs><path class="cls-1" d="M287,217.26s-11.57-5-40.1,32.35c0,0-30.48,41.33,17.43,46.22,0,0,18.27-8.09,39.51-4.35,0,0,30.47,11.83,33.52-19.58,0,0-4-17.39-16.05-22.2,0,0-14.16-12.64-16.34-21.21S287,217.26,287,217.26Z" transform="translate(-224.7 -150.13)"/><path class="cls-1" d="M237.92,193.22s-15,17.44-12.4,31c0,0-1.9,24.17,23,16.9,0,0,14.51-5.19,7.38-30.42C255.87,210.67,245.19,192.46,237.92,193.22Z" transform="translate(-224.7 -150.13)"/><path class="cls-1" d="M321.36,206.46s-12.53,24-2.29,35c0,0,14.53,13.16,25.28,1,0,0,12-14.28,6.72-29.58l-7.39-13.59S333.16,185.88,325,196.9Z" transform="translate(-224.7 -150.13)"/><path class="cls-1" d="M290.21,168l-2.28,18.52s.4,17.23,9.52,19.68c0,0,13.41,4.17,21.16-11.79,0,0,5.48-13.94-1.47-22.23,0,0-8.46-21-15.29-20.42C301.85,151.71,289.21,148.48,290.21,168Z" transform="translate(-224.7 -150.13)"/><path class="cls-1" d="M281.34,169.9,281,183.69s5,15.82-11.26,21.65c0,0-14.24-2.89-18.85-16.1,0,0-3.38-16.28,5.62-27.76l8.87-7.51s9.68-10.43,13.91,5.57Z" transform="translate(-224.7 -150.13)"/></svg>